<?xml version="1.0" encoding="UTF-8"?><svg id="Layer_1" xmlns="http://www.w3.org/2000/svg" viewBox="0 0 525.84 859.2"><defs><style>.cls-1{fill:aqua;}.cls-2{fill:#662d91;}.cls-3{fill:none;stroke:#000;stroke-miterlimit:10;stroke-width:10px;}.cls-4{fill:#1b1464;}</style></defs><g><g><rect class="cls-2" x="91.2" y="113.2" width="343.44" height="535.51"/><path d="M434.14,113.7V648.21H91.7V113.7H434.14m1-1H90.7V649.21H435.14V112.7h0Z"/></g><rect class="cls-4" x="68.47" y="550.79" width="388.89" height="246.03"/><rect class="cls-4" x="77.08" width="370.76" height="114.29"/><rect class="cls-4" x="77.08" y="112.7" width="18.38" height="438.1"/><g><rect class="cls-4" x="429.96" y="113.2" width="17.38" height="437.1"/><path d="M446.84,113.7v436.1h-16.38V113.7h16.38m1-1h-18.38v438.1h18.38V112.7h0Z"/></g></g><g><rect class="cls-4" x="384.13" y="797.33" width="17.38" height="61.37"/><path d="M401.01,797.83v60.37h-16.38v-60.37h16.38m1-1h-18.38v62.37h18.38v-62.37h0Z"/></g><g><rect class="cls-4" x="126.77" y="797.33" width="17.38" height="61.37"/><path d="M143.65,797.83v60.37h-16.38v-60.37h16.38m1-1h-18.38v62.37h18.38v-62.37h0Z"/></g><path class="cls-3" d="M68.47,638.79c-75.02,23.37-62.73,78.2-62.73,78.2"/><path class="cls-3" d="M457.36,638.79c75.02,23.37,62.73,78.2,62.73,78.2"/><rect class="cls-1" x="205.42" y="66.93" width="37.07" height="29.78"/><rect class="cls-1" x="285.48" y="66.93" width="36.87" height="29.78"/><path class="cls-1" d="M363.46,766.19H171.67v-184.76c-3.98,56.21,40.66,104.08,94.51,104.85,54.85,.78,101.3-47.57,97.28-104.85v184.76Z"/><rect class="cls-1" x="285.48" y="17.57" width="46.06" height="5.11"/><rect class="cls-1" x="196.43" y="17.57" width="46.06" height="5.11"/></svg>