<?xml version="1.0" encoding="UTF-8"?>
<svg width="22px" height="17px" viewBox="0 0 22 17" version="1.1" xmlns="http://www.w3.org/2000/svg" xmlns:xlink="http://www.w3.org/1999/xlink">
    <!-- Generator: Sketch 53.2 (72643) - https://sketchapp.com -->
    <title>game-players</title>
    <desc>Created with Sketch.</desc>
    <g id="01-Home" stroke="none" stroke-width="1" fill="none" fill-rule="evenodd">
        <path d="M11.312,8.816 C12.7360071,9.47200328 13.8719958,10.4559934 14.72,11.768 C15.5680042,13.0800066 15.992,14.5199922 15.992,16.088 C15.9599998,16.3280012 15.848001,16.5319992 15.656,16.7 C15.463999,16.8680008 15.2440012,16.952 14.996,16.952 C14.7479988,16.952 14.528001,16.8680008 14.336,16.7 C14.143999,16.5319992 14.0320002,16.3280012 14,16.088 C14,14.9999946 13.7320027,13.9960046 13.196,13.076 C12.6599973,12.1559954 11.9320046,11.4280027 11.012,10.892 C10.0919954,10.3559973 9.08800544,10.088 8,10.088 C6.91199456,10.088 5.9080046,10.3559973 4.988,10.892 C4.0679954,11.4280027 3.34000268,12.1559954 2.804,13.076 C2.26799732,13.9960046 2,14.9999946 2,16.088 C1.96799984,16.3280012 1.85600096,16.5319992 1.664,16.7 C1.47199904,16.8680008 1.25200124,16.952 1.004,16.952 C0.75599876,16.952 0.53600096,16.8680008 0.344,16.7 C0.15199904,16.5319992 0.04000016,16.3280012 0.008,16.088 C0.008,14.5199922 0.43199576,13.0800066 1.28,11.768 C2.12800424,10.4559934 3.26399288,9.47200328 4.688,8.816 C4.14399728,8.35199768 3.72800144,7.79600324 3.44,7.148 C3.15199856,6.49999676 3.008,5.8160036 3.008,5.096 C3.008,4.18399544 3.23199776,3.3480038 3.68,2.588 C4.12800224,1.8279962 4.7319962,1.22400224 5.492,0.776 C6.2520038,0.32799776 7.08799544,0.104 8,0.104 C8.91200456,0.104 9.7479962,0.32799776 10.508,0.776 C11.2680038,1.22400224 11.8719978,1.8279962 12.32,2.588 C12.7680022,3.3480038 12.992,4.18399544 12.992,5.096 C12.992,5.8160036 12.8480014,6.49999676 12.56,7.148 C12.2719986,7.79600324 11.8560027,8.35199768 11.312,8.816 Z M8,8.096 C8.54400272,8.096 9.04399772,7.96000136 9.5,7.688 C9.95600228,7.41599864 10.3199986,7.05200228 10.592,6.596 C10.8640014,6.13999772 11,5.64000272 11,5.096 C11,4.55199728 10.8640014,4.05200228 10.592,3.596 C10.3199986,3.13999772 9.95600228,2.77600136 9.5,2.504 C9.04399772,2.23199864 8.54400272,2.096 8,2.096 C7.45599728,2.096 6.95600228,2.23199864 6.5,2.504 C6.04399772,2.77600136 5.68000136,3.13999772 5.408,3.596 C5.13599864,4.05200228 5,4.55199728 5,5.096 C5,5.64000272 5.13599864,6.13999772 5.408,6.596 C5.68000136,7.05200228 6.04399772,7.41599864 6.5,7.688 C6.95600228,7.96000136 7.45599728,8.096 8,8.096 Z M17.744,8.408 L17.744,8.432 C19.0560066,9.26400416 20.0879962,10.3599932 20.84,11.72 C21.5920038,13.0800068 21.968,14.5359922 21.968,16.088 C21.9359998,16.3280012 21.824001,16.5319992 21.632,16.7 C21.439999,16.8680008 21.2200012,16.952 20.972,16.952 C20.7239988,16.952 20.504001,16.8680008 20.312,16.7 C20.119999,16.5319992 20.0080002,16.3280012 19.976,16.088 C19.976,14.7279932 19.6160036,13.4720058 18.896,12.32 C18.1759964,11.1679942 17.2000062,10.3040029 15.968,9.728 L15.44,9.392 C15.2959993,9.29599952 15.1880004,9.17200076 15.116,9.02 C15.0439996,8.86799924 15.008,8.70400088 15.008,8.528 C15.008,8.35199912 15.0559995,8.18800076 15.152,8.036 C15.2480005,7.88399924 15.3679993,7.7680004 15.512,7.688 C15.9760023,7.41599864 16.3399987,7.04800232 16.604,6.584 C16.8680013,6.11999768 17,5.62000268 17,5.084 C17,4.54799732 16.8640014,4.05200228 16.592,3.596 C16.3199986,3.13999772 15.9560023,2.77600136 15.5,2.504 C15.0439977,2.23199864 14.5440027,2.096 14,2.096 C13.7599988,2.06399984 13.5560008,1.95200096 13.388,1.76 C13.2199992,1.56799904 13.136,1.34800124 13.136,1.1 C13.136,0.85199876 13.2199992,0.63200096 13.388,0.44 C13.5560008,0.24799904 13.7599988,0.13600016 14,0.104 C14.9760049,0.104 15.8799958,0.36799736 16.712,0.896 C17.5440042,1.42400264 18.159998,2.13999548 18.56,3.044 C18.960002,3.94800452 19.0880007,4.88399516 18.944,5.852 C18.7999993,6.82000484 18.4000033,7.67199632 17.744,8.408 Z" id="game-players" fill="#FFFFFF" fill-rule="nonzero"></path>
    </g>
</svg>