<?xml version="1.0" encoding="UTF-8"?>
<svg width="22px" height="21px" viewBox="0 0 22 21" version="1.1" xmlns="http://www.w3.org/2000/svg" xmlns:xlink="http://www.w3.org/1999/xlink">
    <!-- Generator: Sketch 53.2 (72643) - https://sketchapp.com -->
    <title>game-price</title>
    <desc>Created with Sketch.</desc>
    <g id="01-Home" stroke="none" stroke-width="1" fill="none" fill-rule="evenodd">
        <path d="M20,2.608 C20.2720014,2.608 20.507999,2.70399904 20.708,2.896 C20.908001,3.08800096 21.008,3.31999864 21.008,3.592 L21.008,6.592 C21.008,7.3120036 20.8280018,7.97999692 20.468,8.596 C20.1079982,9.21200308 19.6200031,9.6999982 19.004,10.06 C18.3879969,10.4200018 17.7200036,10.6 17,10.6 L15.464,10.6 C15.0159978,11.1120026 14.496003,11.5319984 13.904,11.86 C13.311997,12.1880016 12.6800034,12.4079994 12.008,12.52 L12.008,14.608 L12.992,14.608 C13.5360027,14.608 14.0359977,14.7439986 14.492,15.016 C14.9480023,15.2880014 15.3119986,15.6519977 15.584,16.108 C15.8560014,16.5640023 15.992,17.0639973 15.992,17.608 L15.992,19.6 C15.992,19.8720014 15.896001,20.107999 15.704,20.308 C15.511999,20.508001 15.2800014,20.608 15.008,20.608 L6.992,20.608 C6.71999864,20.608 6.48800096,20.508001 6.296,20.308 C6.10399904,20.107999 6.008,19.8720014 6.008,19.6 L6.008,17.608 C6.008,17.0639973 6.14399864,16.5640023 6.416,16.108 C6.68800136,15.6519977 7.05199772,15.2880014 7.508,15.016 C7.96400228,14.7439986 8.46399728,14.608 9.008,14.608 L9.992,14.608 L9.992,12.52 C9.31999664,12.4079994 8.68800296,12.1880016 8.096,11.86 C7.50399704,11.5319984 6.98400224,11.1120026 6.536,10.6 L5,10.6 C4.2799964,10.6 3.61200308,10.4200018 2.996,10.06 C2.37999692,9.6999982 1.8920018,9.21200308 1.532,8.596 C1.1719982,7.97999692 0.992,7.3120036 0.992,6.592 L0.992,3.592 C0.992,3.31999864 1.091999,3.08800096 1.292,2.896 C1.492001,2.70399904 1.72799864,2.608 2,2.608 L5,2.608 L5,1.6 C5,1.32799864 5.099999,1.092001 5.3,0.892 C5.500001,0.691999 5.73599864,0.592 6.008,0.592 L15.992,0.592 C16.2640014,0.592 16.499999,0.691999 16.7,0.892 C16.900001,1.092001 17,1.32799864 17,1.6 L17,2.608 L20,2.608 Z M5,8.608 L5.36,8.608 C5.1199988,7.95199672 5,7.28000344 5,6.592 L5,4.6 L3.008,4.6 L3.008,6.592 C3.008,7.1520028 3.19999808,7.62799804 3.584,8.02 C3.96800192,8.41200196 4.4399972,8.608 5,8.608 Z M12.992,16.6 L9.008,16.6 C8.73599864,16.6 8.500001,16.699999 8.3,16.9 C8.099999,17.100001 8,17.3359986 8,17.608 L8,18.592 L14,18.592 L14,17.608 C14,17.3359986 13.900001,17.100001 13.7,16.9 C13.499999,16.699999 13.2640014,16.6 12.992,16.6 Z M15.008,6.592 L15.008,2.608 L6.992,2.608 L6.992,6.592 C6.992,7.3120036 7.1719982,7.97999692 7.532,8.596 C7.8920018,9.21200308 8.37999692,9.6999982 8.996,10.06 C9.61200308,10.4200018 10.2799964,10.6 11,10.6 C11.7200036,10.6 12.3879969,10.4200018 13.004,10.06 C13.6200031,9.6999982 14.1079982,9.21200308 14.468,8.596 C14.8280018,7.97999692 15.008,7.3120036 15.008,6.592 Z M18.992,6.592 L18.992,4.6 L17,4.6 L17,6.592 C17,7.28000344 16.8800012,7.95199672 16.64,8.608 L17,8.608 C17.5600028,8.608 18.0319981,8.41200196 18.416,8.02 C18.8000019,7.62799804 18.992,7.1520028 18.992,6.592 Z" id="game-price" fill="#FFFFFF" fill-rule="nonzero"></path>
    </g>
</svg>