<?xml version="1.0" encoding="UTF-8"?>
<svg width="22px" height="21px" viewBox="0 0 22 21" version="1.1" xmlns="http://www.w3.org/2000/svg" xmlns:xlink="http://www.w3.org/1999/xlink">
    <!-- Generator: Sketch 53.2 (72643) - https://sketchapp.com -->
    <title>game-target</title>
    <desc>Created with Sketch.</desc>
    <g id="01-Home" stroke="none" stroke-width="1" fill="none" fill-rule="evenodd">
        <path d="M2,7.6 C1.72799864,7.6 1.492001,7.500001 1.292,7.3 C1.091999,7.099999 0.992,6.86400136 0.992,6.592 L0.992,3.592 C0.992,3.04799728 1.12799864,2.54800228 1.4,2.092 C1.67200136,1.63599772 2.03599772,1.27200136 2.492,1 C2.94800228,0.72799864 3.44799728,0.592 3.992,0.592 L6.992,0.592 C7.26400136,0.592 7.499999,0.691999 7.7,0.892 C7.900001,1.092001 8,1.32799864 8,1.6 C8,1.87200136 7.900001,2.107999 7.7,2.308 C7.499999,2.508001 7.26400136,2.608 6.992,2.608 L3.992,2.608 C3.71999864,2.608 3.48800096,2.70399904 3.296,2.896 C3.10399904,3.08800096 3.008,3.31999864 3.008,3.592 L3.008,6.592 C3.008,6.86400136 2.908001,7.099999 2.708,7.3 C2.507999,7.500001 2.27200136,7.6 2,7.6 Z M6.992,18.592 C7.26400136,18.592 7.499999,18.691999 7.7,18.892 C7.900001,19.092001 8,19.3279986 8,19.6 C8,19.8720014 7.900001,20.107999 7.7,20.308 C7.499999,20.508001 7.26400136,20.608 6.992,20.608 L3.992,20.608 C3.44799728,20.608 2.94800228,20.4720014 2.492,20.2 C2.03599772,19.9279986 1.67200136,19.5640023 1.4,19.108 C1.12799864,18.6519977 0.992,18.1520027 0.992,17.608 L0.992,14.608 C0.992,14.3359986 1.091999,14.100001 1.292,13.9 C1.492001,13.699999 1.72799864,13.6 2,13.6 C2.27200136,13.6 2.507999,13.699999 2.708,13.9 C2.908001,14.100001 3.008,14.3359986 3.008,14.608 L3.008,17.608 C3.008,17.8800014 3.10399904,18.111999 3.296,18.304 C3.48800096,18.496001 3.71999864,18.592 3.992,18.592 L6.992,18.592 Z M15.992,11.608 L14.864,11.608 C14.6879991,12.3120035 14.3440026,12.9199974 13.832,13.432 C13.3199974,13.9440026 12.7120035,14.2879991 12.008,14.464 L12.008,15.592 C12.008,15.8640014 11.908001,16.099999 11.708,16.3 C11.507999,16.500001 11.2720014,16.6 11,16.6 C10.7279986,16.6 10.492001,16.500001 10.292,16.3 C10.091999,16.099999 9.992,15.8640014 9.992,15.592 L9.992,14.464 C9.28799648,14.2879991 8.68000256,13.9440026 8.168,13.432 C7.65599744,12.9199974 7.31200088,12.3120035 7.136,11.608 L6.008,11.608 C5.73599864,11.608 5.500001,11.508001 5.3,11.308 C5.099999,11.107999 5,10.8720014 5,10.6 C5,10.3279986 5.099999,10.092001 5.3,9.892 C5.500001,9.691999 5.73599864,9.592 6.008,9.592 L7.136,9.592 C7.31200088,8.88799648 7.65599744,8.28000256 8.168,7.768 C8.68000256,7.25599744 9.28799648,6.91200088 9.992,6.736 L9.992,5.608 C9.992,5.33599864 10.091999,5.100001 10.292,4.9 C10.492001,4.699999 10.7279986,4.6 11,4.6 C11.2720014,4.6 11.507999,4.699999 11.708,4.9 C11.908001,5.100001 12.008,5.33599864 12.008,5.608 L12.008,6.736 C12.7120035,6.91200088 13.3199974,7.25599744 13.832,7.768 C14.3440026,8.28000256 14.6879991,8.88799648 14.864,9.592 L15.992,9.592 C16.2640014,9.592 16.499999,9.691999 16.7,9.892 C16.900001,10.092001 17,10.3279986 17,10.6 C17,10.8720014 16.900001,11.107999 16.7,11.308 C16.499999,11.508001 16.2640014,11.608 15.992,11.608 Z M11,12.592 C11.5440027,12.592 12.011998,12.396002 12.404,12.004 C12.796002,11.611998 12.992,11.1440027 12.992,10.6 C12.992,10.0559973 12.796002,9.58800196 12.404,9.196 C12.011998,8.80399804 11.5440027,8.608 11,8.608 C10.4559973,8.608 9.98800196,8.80399804 9.596,9.196 C9.20399804,9.58800196 9.008,10.0559973 9.008,10.6 C9.008,11.1440027 9.20399804,11.611998 9.596,12.004 C9.98800196,12.396002 10.4559973,12.592 11,12.592 Z M20,13.6 C20.2720014,13.6 20.507999,13.699999 20.708,13.9 C20.908001,14.100001 21.008,14.3359986 21.008,14.608 L21.008,17.608 C21.008,18.1520027 20.8720014,18.6519977 20.6,19.108 C20.3279986,19.5640023 19.9640023,19.9279986 19.508,20.2 C19.0519977,20.4720014 18.5520027,20.608 18.008,20.608 L15.008,20.608 C14.7359986,20.608 14.500001,20.508001 14.3,20.308 C14.099999,20.107999 14,19.8720014 14,19.6 C14,19.3279986 14.099999,19.092001 14.3,18.892 C14.500001,18.691999 14.7359986,18.592 15.008,18.592 L18.008,18.592 C18.2800014,18.592 18.511999,18.496001 18.704,18.304 C18.896001,18.111999 18.992,17.8800014 18.992,17.608 L18.992,14.608 C18.992,14.3359986 19.091999,14.100001 19.292,13.9 C19.492001,13.699999 19.7279986,13.6 20,13.6 Z M18.008,0.592 C18.5520027,0.592 19.0519977,0.72799864 19.508,1 C19.9640023,1.27200136 20.3279986,1.63599772 20.6,2.092 C20.8720014,2.54800228 21.008,3.04799728 21.008,3.592 L21.008,6.592 C21.008,6.86400136 20.908001,7.099999 20.708,7.3 C20.507999,7.500001 20.2720014,7.6 20,7.6 C19.7279986,7.6 19.492001,7.500001 19.292,7.3 C19.091999,7.099999 18.992,6.86400136 18.992,6.592 L18.992,3.592 C18.992,3.31999864 18.896001,3.08800096 18.704,2.896 C18.511999,2.70399904 18.2800014,2.608 18.008,2.608 L15.008,2.608 C14.7359986,2.608 14.500001,2.508001 14.3,2.308 C14.099999,2.107999 14,1.87200136 14,1.6 C14,1.32799864 14.099999,1.092001 14.3,0.892 C14.500001,0.691999 14.7359986,0.592 15.008,0.592 L18.008,0.592 Z" id="game-target" fill="#FFFFFF" fill-rule="nonzero"></path>
    </g>
</svg>