<?xml version="1.0" encoding="UTF-8"?>
<svg width="20px" height="21px" viewBox="0 0 20 21" version="1.1" xmlns="http://www.w3.org/2000/svg" xmlns:xlink="http://www.w3.org/1999/xlink">
    <!-- Generator: Sketch 53.2 (72643) - https://sketchapp.com -->
    <title>game-skill</title>
    <desc>Created with Sketch.</desc>
    <g id="01-Home" stroke="none" stroke-width="1" fill="none" fill-rule="evenodd">
        <path d="M18.28,7.96 C18.4400008,8.07200056 18.5599996,8.21999908 18.64,8.404 C18.7200004,8.58800092 18.7400002,8.779999 18.7,8.98 C18.6599998,9.180001 18.5680007,9.35199928 18.424,9.496 C18.2799993,9.64000072 18.112001,9.7319998 17.92,9.772 C17.727999,9.8120002 17.536001,9.79600036 17.344,9.724 C17.151999,9.65199964 17.0000006,9.5360008 16.888,9.376 L14.752,7.264 L6.664,15.352 L8.752,17.44 C8.89600072,17.5840007 8.9879998,17.755999 9.028,17.956 C9.0680002,18.156001 9.0480004,18.351999 8.968,18.544 C8.8879996,18.736001 8.76400084,18.8879994 8.596,19 C8.42799916,19.1120006 8.24000104,19.168 8.032,19.168 C7.75999864,19.1519999 7.52800096,19.048001 7.336,18.856 L1.72,13.24 C1.52799904,13.047999 1.432,12.8120014 1.432,12.532 C1.432,12.2519986 1.52799904,12.016001 1.72,11.824 C1.91200096,11.631999 2.14399864,11.536 2.416,11.536 C2.68800136,11.536 2.91999904,11.631999 3.112,11.824 L5.248,13.936 L13.336,5.848 L11.224,3.712 C11.031999,3.51999904 10.936,3.28800136 10.936,3.016 C10.936,2.74399864 11.031999,2.51200096 11.224,2.32 C11.416001,2.12799904 11.6519986,2.032 11.932,2.032 C12.2120014,2.032 12.447999,2.12799904 12.64,2.32 L18.28,7.96 Z M1.72,16.048 L4.528,18.88 C4.73600104,19.072001 4.84,19.3119986 4.84,19.6 C4.84,19.8880014 4.740001,20.127999 4.54,20.32 C4.339999,20.512001 4.1000014,20.608 3.82,20.608 C3.5399986,20.608 3.30400096,20.512001 3.112,20.32 L0.28,17.488 C0.08799904,17.295999 -0.008,17.0560014 -0.008,16.768 C-0.008,16.4799986 0.08799904,16.240001 0.28,16.048 C0.47200096,15.855999 0.71199856,15.76 1,15.76 C1.28800144,15.76 1.52799904,15.855999 1.72,16.048 Z M19.72,3.712 C19.912001,3.90400096 20.008,4.1399986 20.008,4.42 C20.008,4.7000014 19.912001,4.939999 19.72,5.14 C19.527999,5.340001 19.2880014,5.44 19,5.44 C18.7119986,5.44 18.472001,5.33600104 18.28,5.128 L15.472,2.32 C15.279999,2.12799904 15.18,1.8920014 15.172,1.612 C15.164,1.3319986 15.259999,1.092001 15.46,0.892 C15.660001,0.691999 15.8999986,0.592 16.18,0.592 C16.4600014,0.592 16.695999,0.68799904 16.888,0.88 L19.72,3.712 Z" id="game-skill" fill="#FFFFFF" fill-rule="nonzero"></path>
    </g>
</svg>